HIERARCHY
ROOT Hips
{
 OFFSET 0.000000 0.000000 0.000000
 CHANNELS 6 Xposition Yposition Zposition Yrotation Xrotation Zrotation
 JOINT Chest
 {
  OFFSET 0.000000 9.581000 -0.001100
  CHANNELS 3 Yrotation Xrotation Zrotation
  JOINT Chest2
  {
   OFFSET 0.000000 9.561100 0.002200
   CHANNELS 3 Yrotation Xrotation Zrotation
   JOINT Chest3
   {
    OFFSET 0.000000 9.521100 0.000000
    CHANNELS 3 Yrotation Xrotation Zrotation
    JOINT Chest4
    {
     OFFSET 0.000000 9.511400 0.000000
     CHANNELS 3 Yrotation Xrotation Zrotation
     JOINT Neck
     {
      OFFSET 0.000000 14.375100 0.000000
      CHANNELS 3 Yrotation Xrotation Zrotation
      JOINT Head
      {
       OFFSET 0.000000 8.901200 0.004600
       CHANNELS 3 Yrotation Xrotation Zrotation
       End Site
       {
        OFFSET 0.000000 16.962200 0.002400
       }
      }
     }
     JOINT RightCollar
     {
      OFFSET -2.920100 9.518800 0.000000
      CHANNELS 3 Yrotation Xrotation Zrotation
      JOINT RightShoulder
      {
       OFFSET -13.664500 0.000000 0.000000
       CHANNELS 3 Yrotation Xrotation Zrotation
       JOINT RightElbow
       {
        OFFSET 0.000000 -29.999200 0.000000
        CHANNELS 3 Yrotation Xrotation Zrotation
        JOINT RightWrist
        {
         OFFSET 0.000000 -24.253600 0.000000
         CHANNELS 3 Yrotation Xrotation Zrotation
         End Site
         {
          OFFSET 0.000000 -17.918900 0.000000
         }
        }
       }
      }
     }
     JOINT LeftCollar
     {
      OFFSET 2.920100 9.518800 0.000000
      CHANNELS 3 Yrotation Xrotation Zrotation
      JOINT LeftShoulder
      {
       OFFSET 13.664500 0.000000 0.000000
       CHANNELS 3 Yrotation Xrotation Zrotation
       JOINT LeftElbow
       {
        OFFSET 0.000000 -29.999200 0.000000
        CHANNELS 3 Yrotation Xrotation Zrotation
        JOINT LeftWrist
        {
         OFFSET 0.000000 -24.253600 0.000000
         CHANNELS 3 Yrotation Xrotation Zrotation
         End Site
         {
          OFFSET 0.000000 -17.918900 0.000000
         }
        }
       }
      }
     }
    }
   }
  }
 }
 JOINT RightHip
 {
  OFFSET -7.797300 0.005300 0.000500
  CHANNELS 3 Yrotation Xrotation Zrotation
  JOINT RightKnee
  {
   OFFSET 0.000000 -40.663400 -0.000500
   CHANNELS 3 Yrotation Xrotation Zrotation
   JOINT RightAnkle
   {
    OFFSET 0.000000 -39.523700 -0.000900
    CHANNELS 3 Yrotation Xrotation Zrotation
    JOINT RightToe
    {
     OFFSET 0.000000 -6.418000 14.485300
     CHANNELS 3 Yrotation Xrotation Zrotation
     End Site
     {
      OFFSET 0.000000 -1.465200 6.326400
     }
    }
   }
  }
 }
 JOINT LeftHip
 {
  OFFSET 7.797300 0.005300 0.000500
  CHANNELS 3 Yrotation Xrotation Zrotation
  JOINT LeftKnee
  {
   OFFSET 0.000000 -40.663400 -0.000500
   CHANNELS 3 Yrotation Xrotation Zrotation
   JOINT LeftAnkle
   {
    OFFSET 0.000000 -39.523700 -0.000900
    CHANNELS 3 Yrotation Xrotation Zrotation
    JOINT LeftToe
    {
     OFFSET 0.000000 -6.418000 14.485300
     CHANNELS 3 Yrotation Xrotation Zrotation
     End Site
     {
      OFFSET 0.000000 -1.465200 6.326400
     }
    }
   }
  }
 }
}
MOTION
Frames: 12
Frame Time: 0.008333
-12.788317 126.873742 -5.316817 -170.377074 -44.709448 -4.007786 -0.980118 25.953224 1.545648 -0.197735 4.266356 0.286878 -0.327591 6.824359 0.435259 -0.837620 21.338879 1.297898 3.947043 15.798785 1.418137 3.848137 -9.080664 0.598330 1.312062 2.466785 1.481969 -0.366652 -11.180664 -7.732396 -94.564131 -52.186020 143.450909 5.976224 17.234430 10.206651 -9.506791 -1.769531 0.026866 -7.145826 -10.942673 10.786157 69.985768 -53.665612 -117.033242 -3.148220 0.393110 -0.169894 -10.903553 -13.645981 -10.407843 -167.103945 75.023290 -171.300705 22.512735 22.338965 -7.129908 -0.003859 0.002509 -0.001710 12.384884 -15.731078 -9.480462 7.242950 70.132348 -5.704014 4.586872 -13.733555 11.279461 -0.003783 0.000006 -0.001676
-12.786881 126.873938 -5.315986 -170.379044 -44.716539 -4.000668 -0.961915 25.941713 1.559460 -0.204151 4.273960 0.280791 -0.334894 6.820990 0.434227 -0.830648 21.341118 1.296955 3.929814 15.770909 1.402473 3.834094 -9.184846 0.545141 1.298657 2.467561 1.482775 -0.385539 -11.170191 -7.729155 -94.549612 -52.180777 143.448909 5.967018 17.234659 10.205021 -9.518479 -1.760566 0.025257 -7.127763 -10.948427 10.772049 69.981172 -53.670721 -117.032574 -3.131883 0.375357 -0.134400 -10.888459 -13.640369 -10.400951 -167.056217 75.018274 -171.248140 22.517325 22.337679 -7.119003 0.001505 -0.000379 0.000667 12.413503 -15.713247 -9.465313 7.172485 70.128294 -5.770563 4.579109 -13.729477 11.266049 -0.001856 0.000684 -0.000823
-12.786574 126.874273 -5.315237 -170.360632 -44.724663 -4.001540 -0.975445 25.948007 1.549971 -0.198312 4.267703 0.283417 -0.320821 6.813415 0.439147 -0.847700 21.349756 1.292125 3.911609 15.689023 1.357615 3.821642 -9.234129 0.522384 1.288544 2.461843 1.482348 -0.402151 -11.157304 -7.731957 -94.533272 -52.174483 143.442833 5.965291 17.228135 10.202462 -9.523000 -1.756570 0.023217 -7.096498 -10.952334 10.740549 69.943525 -53.694110 -117.022306 -3.125074 0.368995 -0.115182 -10.895335 -13.633244 -10.410023 -167.049052 75.020133 -171.244211 22.527182 22.344434 -7.108671 0.001462 -0.000788 0.000648 12.425553 -15.697745 -9.458403 7.112385 70.128127 -5.826865 4.568699 -13.715908 11.254417 -0.000925 0.000315 -0.000410
-12.786032 126.875031 -5.314978 -170.352255 -44.737178 -3.997413 -0.978050 25.950812 1.544282 -0.198995 4.271907 0.284413 -0.317780 6.810260 0.439594 -0.855232 21.355557 1.289870 3.897197 15.608699 1.311733 3.814168 -9.281278 0.498196 1.285062 2.455589 1.481571 -0.415798 -11.150453 -7.733229 -94.504547 -52.182490 143.430385 5.961987 17.214928 10.191110 -9.519343 -1.760267 0.020133 -7.085334 -10.951377 10.728139 69.927408 -53.702472 -117.017247 -3.120285 0.364365 -0.096124 -10.896340 -13.620833 -10.415205 -167.029570 75.019782 -171.232658 22.534565 22.343516 -7.094299 -0.000495 0.000409 -0.000219 12.437218 -15.679193 -9.445352 7.078925 70.125307 -5.867305 4.557469 -13.691151 11.231607 -0.002237 0.001709 -0.000991
-12.787029 126.875611 -5.314465 -170.324520 -44.748100 -3.997615 -0.985017 25.950177 1.541886 -0.209055 4.278006 0.278811 -0.318495 6.809496 0.439068 -0.862863 21.359622 1.288718 3.888276 15.547568 1.273547 3.808263 -9.282111 0.502522 1.281771 2.454113 1.481052 -0.423890 -11.149001 -7.738742 -94.491657 -52.183108 143.429891 5.956459 17.214090 10.176815 -9.513312 -1.760486 0.019951 -7.084676 -10.951374 10.720513 69.931552 -53.698213 -117.013565 -3.120740 0.367121 -0.088081 -10.912163 -13.608424 -10.430614 -167.005754 75.019931 -171.216907 22.537995 22.343507 -7.088186 -0.000095 0.001286 -0.000042 12.433501 -15.658646 -9.446780 7.032665 70.121403 -5.922556 4.552325 -13.683387 11.243031 -0.003061 -0.000475 -0.001356
-12.785724 126.875067 -5.312989 -170.310313 -44.749363 -4.000823 -0.991754 25.949560 1.539652 -0.200943 4.273220 0.282156 -0.321036 6.809752 0.437780 -0.858973 21.351968 1.286124 3.872160 15.499403 1.241634 3.802412 -9.370002 0.449850 1.265780 2.464801 1.487437 -0.430828 -11.152341 -7.742180 -94.479527 -52.186742 143.422487 5.961953 17.222417 10.173973 -9.519293 -1.749859 0.018597 -7.085175 -10.947962 10.718040 69.932150 -53.697984 -117.006292 -3.120208 0.368700 -0.082063 -10.922463 -13.605089 -10.428370 -166.978028 75.020624 -171.197051 22.539772 22.342790 -7.081472 -0.000630 0.002469 -0.000279 12.431541 -15.659240 -9.426102 6.984094 70.124695 -5.990094 4.544728 -13.660828 11.242884 -0.000076 -0.003962 -0.000034
-12.784463 126.874095 -5.311042 -170.304464 -44.747503 -3.997234 -0.991022 25.945708 1.538406 -0.198566 4.268320 0.283946 -0.325774 6.813090 0.435194 -0.861963 21.353598 1.284986 3.868696 15.470683 1.223128 3.808425 -9.482047 0.373300 1.271940 2.457796 1.482777 -0.457310 -11.147425 -7.735079 -94.468244 -52.196419 143.421247 5.965471 17.229907 10.176352 -9.514460 -1.750774 0.011176 -7.073473 -10.945818 10.708205 69.945921 -53.700246 -116.992528 -3.118534 0.385280 -0.099120 -10.927930 -13.610153 -10.425744 -166.945172 75.017312 -171.170958 22.539549 22.347071 -7.080309 0.000443 0.001614 0.000196 12.429392 -15.659623 -9.420937 7.005100 70.114528 -5.986545 4.534261 -13.631943 11.242744 -0.004952 -0.003756 -0.002194
-12.784468 126.873680 -5.309511 -170.294580 -44.750917 -3.989216 -0.985587 25.933252 1.540997 -0.211213 4.277562 0.276636 -0.327678 6.815290 0.433665 -0.859297 21.348015 1.282133 3.861986 15.449850 1.209100 3.821614 -9.559008 0.315399 1.269866 2.441222 1.479439 -0.474794 -11.129334 -7.733372 -94.454950 -52.201454 143.410280 5.964762 17.233322 10.180242 -9.507202 -1.758425 0.003147 -7.070268 -10.930130 10.705744 69.941579 -53.702125 -116.979692 -3.115605 0.387143 -0.097849 -10.930445 -13.609986 -10.433367 -166.911514 75.016082 -171.143874 22.543559 22.355494 -7.076337 -0.000310 0.001111 -0.000137 12.425595 -15.653888 -9.423670 7.001244 70.107806 -6.002062 4.531993 -13.603708 11.238879 -0.007451 -0.003300 -0.003301
-12.785113 126.874564 -5.309128 -170.266157 -44.764614 -3.991536 -1.008982 25.943113 1.525311 -0.213688 4.280070 0.275457 -0.324879 6.809282 0.435155 -0.867821 21.344812 1.274346 3.865232 15.403975 1.176172 3.834489 -9.603494 0.279248 1.276376 2.440732 1.475855 -0.482199 -11.125629 -7.733786 -94.448503 -52.205556 143.399716 5.956962 17.229146 10.181866 -9.500970 -1.752295 0.002867 -7.049678 -10.925912 10.696203 69.932837 -53.704763 -116.969832 -3.111944 0.387152 -0.097527 -10.942803 -13.595542 -10.447255 -166.860889 75.015646 -171.095459 22.545971 22.364022 -7.076250 0.001167 -0.000451 0.000517 12.425773 -15.635677 -9.414674 6.955704 70.103847 -6.056477 4.518244 -13.569134 11.247332 -0.003983 -0.006171 -0.001765
-12.783676 126.874568 -5.307917 -170.261687 -44.771399 -3.988345 -1.010696 25.945149 1.521799 -0.210118 4.275516 0.276764 -0.325547 6.809718 0.434121 -0.872926 21.349445 1.272028 3.866908 15.355414 1.140563 3.845730 -9.648530 0.245335 1.275862 2.435738 1.470862 -0.486609 -11.124282 -7.735118 -94.445195 -52.207236 143.393831 5.963300 17.235964 10.183481 -9.499576 -1.754685 0.001627 -7.030731 -10.915115 10.684777 69.928493 -53.711860 -116.968574 -3.108817 0.387595 -0.098796 -10.940428 -13.588682 -10.445841 -166.825758 75.014406 -171.063767 22.549972 22.370971 -7.069665 0.001155 0.001246 0.000512 12.436114 -15.626161 -9.406914 6.928241 70.099365 -6.081253 4.512258 -13.540885 11.244869 -0.003751 -0.004488 -0.001662
-12.783178 126.874654 -5.306642 -170.252752 -44.779217 -3.982572 -1.008672 25.945660 1.518005 -0.200625 4.266688 0.276931 -0.334059 6.817837 0.433350 -0.871799 21.349182 1.269524 3.865245 15.311515 1.110326 3.853334 -9.692378 0.215657 1.261640 2.440144 1.476601 -0.487213 -11.124031 -7.736075 -94.445257 -52.207470 143.392716 5.989096 17.240964 10.190698 -9.500299 -1.756474 0.005711 -7.021411 -10.905560 10.670284 69.913039 -53.717211 -116.960930 -3.110277 0.391782 -0.106370 -10.941620 -13.581909 -10.454160 -166.803695 75.014687 -171.048745 22.558990 22.372500 -7.058466 -0.000482 0.002068 -0.000214 12.448566 -15.613416 -9.406368 6.902855 70.093656 -6.101710 4.511574 -13.511411 11.245622 -0.002353 -0.003187 -0.001042
-12.782016 126.874977 -5.305582 -170.243658 -44.788799 -3.980954 -1.010285 25.947332 1.512768 -0.202787 4.270080 0.277361 -0.332422 6.814493 0.431426 -0.858570 21.339167 1.260860 3.858807 15.277210 1.092968 3.852642 -9.689564 0.221484 1.250563 2.445996 1.488730 -0.492617 -11.127201 -7.740403 -94.441451 -52.209028 143.381869 5.979158 17.237928 10.189869 -9.503361 -1.759180 0.018733 -7.018107 -10.886678 10.658823 69.896688 -53.715823 -116.950316 -3.104995 0.390057 -0.090804 -10.945422 -13.570979 -10.449410 -166.759168 75.016887 -171.021484 22.571789 22.370485 -7.035807 -0.003421 0.002963 -0.001516 12.463301 -15.600348 -9.400584 6.912187 70.091242 -6.089178 4.499747 -13.478897 11.252254 -0.001419 -0.001717 -0.000629
